<?xml version="1.0" encoding="UTF-8" standalone="no"?>
<!DOCTYPE svg PUBLIC "-//W3C//DTD SVG 1.1//EN"
 "http://www.w3.org/Graphics/SVG/1.1/DTD/svg11.dtd">
<!-- Generated by graphviz version 2.40.1 (20161225.0304)
 -->
<!-- Title: dependencies Pages: 1 -->
<svg width="1187pt" height="284pt"
 viewBox="0.00 0.00 1187.00 284.00" xmlns="http://www.w3.org/2000/svg" xmlns:xlink="http://www.w3.org/1999/xlink">
<g id="graph0" class="graph" transform="scale(1 1) rotate(0) translate(4 280)">
<title>dependencies</title>
<polygon fill="#ffffff" stroke="transparent" points="-4,4 -4,-280 1183,-280 1183,4 -4,4"/>
<text text-anchor="start" x="568.5091" y="-42.4" font-family="sans-serif" font-weight="bold" font-size="14.00" fill="#000000">Legend</text>
<polygon fill="#ffffb3" stroke="transparent" points="355.5,-10 355.5,-30 375.5,-30 375.5,-10 355.5,-10"/>
<text text-anchor="start" x="379.129" y="-15.4" font-family="sans-serif" font-size="14.00" fill="#000000"> &#160;Declarations</text>
<polygon fill="#8dd3c7" stroke="transparent" points="468.5,-10 468.5,-30 488.5,-30 488.5,-10 468.5,-10"/>
<text text-anchor="start" x="492.2251" y="-15.4" font-family="sans-serif" font-size="14.00" fill="#000000"> &#160;Module</text>
<polygon fill="#80b1d3" stroke="transparent" points="554.5,-10 554.5,-30 574.5,-30 574.5,-10 554.5,-10"/>
<text text-anchor="start" x="578.2812" y="-15.4" font-family="sans-serif" font-size="14.00" fill="#000000"> &#160;Bootstrap</text>
<polygon fill="#fdb462" stroke="transparent" points="651.5,-10 651.5,-30 671.5,-30 671.5,-10 651.5,-10"/>
<text text-anchor="start" x="675.1732" y="-15.4" font-family="sans-serif" font-size="14.00" fill="#000000"> &#160;Providers</text>
<polygon fill="#fb8072" stroke="transparent" points="747.5,-10 747.5,-30 767.5,-30 767.5,-10 747.5,-10"/>
<text text-anchor="start" x="771.2258" y="-15.4" font-family="sans-serif" font-size="14.00" fill="#000000"> &#160;Exports</text>
<g id="clust1" class="cluster">
<title>cluster_AppModule</title>
<polygon fill="none" stroke="#000000" stroke-dasharray="1,5" points="8,-70 8,-268 1171,-268 1171,-70 8,-70"/>
</g>
<g id="clust2" class="cluster">
<title>cluster_AppModule_declarations</title>
<polygon fill="none" stroke="#000000" points="168,-78 168,-130 1163,-130 1163,-78 168,-78"/>
</g>
<g id="clust10" class="cluster">
<title>cluster_AppModule_imports</title>
<polygon fill="none" stroke="#000000" points="16,-78 16,-130 160,-130 160,-78 16,-78"/>
</g>
<g id="clust12" class="cluster">
<title>cluster_AppModule_bootstrap</title>
<polygon fill="none" stroke="#000000" points="527,-208 527,-260 651,-260 651,-208 527,-208"/>
</g>
<!-- AppComponent -->
<g id="node1" class="node">
<title>AppComponent</title>
<polygon fill="#ffffb3" stroke="#000000" points="1154.9399,-122 1049.0601,-122 1049.0601,-86 1154.9399,-86 1154.9399,-122"/>
<text text-anchor="middle" x="1102" y="-99.8" font-family="Times,serif" font-size="14.00" fill="#000000">AppComponent</text>
</g>
<!-- AppModule -->
<g id="node8" class="node">
<title>AppModule</title>
<polygon fill="#8dd3c7" stroke="#000000" points="630.6571,-187 627.6571,-191 606.6571,-191 603.6571,-187 547.3429,-187 547.3429,-151 630.6571,-151 630.6571,-187"/>
<text text-anchor="middle" x="589" y="-164.8" font-family="Times,serif" font-size="14.00" fill="#000000">AppModule</text>
</g>
<!-- AppComponent&#45;&gt;AppModule -->
<g id="edge1" class="edge">
<title>AppComponent&#45;&gt;AppModule</title>
<path fill="none" stroke="#000000" d="M1102,-122.2921C1102,-144.2057 1102,-178 1102,-178 1102,-178 640.9809,-178 640.9809,-178"/>
<polygon fill="#000000" stroke="#000000" points="640.981,-174.5001 630.9809,-178 640.9809,-181.5001 640.981,-174.5001"/>
</g>
<!-- AutoCompleteComponent -->
<g id="node2" class="node">
<title>AutoCompleteComponent</title>
<polygon fill="#ffffb3" stroke="#000000" points="1030.7674,-122 867.2326,-122 867.2326,-86 1030.7674,-86 1030.7674,-122"/>
<text text-anchor="middle" x="949" y="-99.8" font-family="Times,serif" font-size="14.00" fill="#000000">AutoCompleteComponent</text>
</g>
<!-- AutoCompleteComponent&#45;&gt;AppModule -->
<g id="edge2" class="edge">
<title>AutoCompleteComponent&#45;&gt;AppModule</title>
<path fill="none" stroke="#000000" d="M949,-122.1061C949,-141.3391 949,-169 949,-169 949,-169 641.0011,-169 641.0011,-169"/>
<polygon fill="#000000" stroke="#000000" points="641.0012,-165.5001 631.0011,-169 641.0011,-172.5001 641.0012,-165.5001"/>
</g>
<!-- DetailsComponent -->
<g id="node3" class="node">
<title>DetailsComponent</title>
<polygon fill="#ffffb3" stroke="#000000" points="849.4846,-122 728.5154,-122 728.5154,-86 849.4846,-86 849.4846,-122"/>
<text text-anchor="middle" x="789" y="-99.8" font-family="Times,serif" font-size="14.00" fill="#000000">DetailsComponent</text>
</g>
<!-- DetailsComponent&#45;&gt;AppModule -->
<g id="edge3" class="edge">
<title>DetailsComponent&#45;&gt;AppModule</title>
<path fill="none" stroke="#000000" d="M789,-122.027C789,-138.3976 789,-160 789,-160 789,-160 640.9266,-160 640.9266,-160"/>
<polygon fill="#000000" stroke="#000000" points="640.9266,-156.5001 630.9266,-160 640.9265,-163.5001 640.9266,-156.5001"/>
</g>
<!-- HighlighterPipe -->
<g id="node4" class="node">
<title>HighlighterPipe</title>
<polygon fill="#ffffb3" stroke="#000000" points="710.9329,-122 605.0671,-122 605.0671,-86 710.9329,-86 710.9329,-122"/>
<text text-anchor="middle" x="658" y="-99.8" font-family="Times,serif" font-size="14.00" fill="#000000">HighlighterPipe</text>
</g>
<!-- HighlighterPipe&#45;&gt;AppModule -->
<g id="edge4" class="edge">
<title>HighlighterPipe&#45;&gt;AppModule</title>
<path fill="none" stroke="#000000" d="M618.0561,-122.1061C618.0561,-122.1061 618.0561,-140.991 618.0561,-140.991"/>
<polygon fill="#000000" stroke="#000000" points="614.5562,-140.9909 618.0561,-150.991 621.5562,-140.991 614.5562,-140.9909"/>
</g>
<!-- ListViewComponent -->
<g id="node5" class="node">
<title>ListViewComponent</title>
<polygon fill="#ffffb3" stroke="#000000" points="587.9299,-122 454.0701,-122 454.0701,-86 587.9299,-86 587.9299,-122"/>
<text text-anchor="middle" x="521" y="-99.8" font-family="Times,serif" font-size="14.00" fill="#000000">ListViewComponent</text>
</g>
<!-- ListViewComponent&#45;&gt;AppModule -->
<g id="edge5" class="edge">
<title>ListViewComponent&#45;&gt;AppModule</title>
<path fill="none" stroke="#000000" d="M567.4432,-122.1061C567.4432,-122.1061 567.4432,-140.991 567.4432,-140.991"/>
<polygon fill="#000000" stroke="#000000" points="563.9433,-140.9909 567.4432,-150.991 570.9433,-140.991 563.9433,-140.9909"/>
</g>
<!-- ScrollViewDirective -->
<g id="node6" class="node">
<title>ScrollViewDirective</title>
<polygon fill="#ffffb3" stroke="#000000" points="435.8403,-122 304.1597,-122 304.1597,-86 435.8403,-86 435.8403,-122"/>
<text text-anchor="middle" x="370" y="-99.8" font-family="Times,serif" font-size="14.00" fill="#000000">ScrollViewDirective</text>
</g>
<!-- ScrollViewDirective&#45;&gt;AppModule -->
<g id="edge6" class="edge">
<title>ScrollViewDirective&#45;&gt;AppModule</title>
<path fill="none" stroke="#000000" d="M370,-122.027C370,-138.3976 370,-160 370,-160 370,-160 537.2923,-160 537.2923,-160"/>
<polygon fill="#000000" stroke="#000000" points="537.2923,-163.5001 547.2923,-160 537.2923,-156.5001 537.2923,-163.5001"/>
</g>
<!-- SearchFilterPipe -->
<g id="node7" class="node">
<title>SearchFilterPipe</title>
<polygon fill="#ffffb3" stroke="#000000" points="285.8048,-122 176.1952,-122 176.1952,-86 285.8048,-86 285.8048,-122"/>
<text text-anchor="middle" x="231" y="-99.8" font-family="Times,serif" font-size="14.00" fill="#000000">SearchFilterPipe</text>
</g>
<!-- SearchFilterPipe&#45;&gt;AppModule -->
<g id="edge7" class="edge">
<title>SearchFilterPipe&#45;&gt;AppModule</title>
<path fill="none" stroke="#000000" d="M231,-122.1061C231,-141.3391 231,-169 231,-169 231,-169 537.2322,-169 537.2322,-169"/>
<polygon fill="#000000" stroke="#000000" points="537.2322,-172.5001 547.2322,-169 537.2322,-165.5001 537.2322,-172.5001"/>
</g>
<!-- AppComponent  -->
<g id="node10" class="node">
<title>AppComponent </title>
<polygon fill="#80b1d3" stroke="#000000" points="643.439,-252 534.561,-252 534.561,-216 643.439,-216 643.439,-252"/>
<text text-anchor="middle" x="589" y="-229.8" font-family="Times,serif" font-size="14.00" fill="#000000">AppComponent </text>
</g>
<!-- AppModule&#45;&gt;AppComponent  -->
<g id="edge9" class="edge">
<title>AppModule&#45;&gt;AppComponent </title>
<path fill="none" stroke="#000000" stroke-dasharray="1,5" d="M589,-187.1061C589,-187.1061 589,-205.991 589,-205.991"/>
<polygon fill="#000000" stroke="#000000" points="585.5001,-205.9909 589,-215.991 592.5001,-205.991 585.5001,-205.9909"/>
</g>
<!-- AppRoutingModule -->
<g id="node9" class="node">
<title>AppRoutingModule</title>
<polygon fill="#8dd3c7" stroke="#000000" points="152.2744,-122 149.2744,-126 128.2744,-126 125.2744,-122 23.7256,-122 23.7256,-86 152.2744,-86 152.2744,-122"/>
<text text-anchor="middle" x="88" y="-99.8" font-family="Times,serif" font-size="14.00" fill="#000000">AppRoutingModule</text>
</g>
<!-- AppRoutingModule&#45;&gt;AppModule -->
<g id="edge8" class="edge">
<title>AppRoutingModule&#45;&gt;AppModule</title>
<path fill="none" stroke="#000000" d="M88,-122.2921C88,-144.2057 88,-178 88,-178 88,-178 537.1467,-178 537.1467,-178"/>
<polygon fill="#000000" stroke="#000000" points="537.1468,-181.5001 547.1467,-178 537.1467,-174.5001 537.1468,-181.5001"/>
</g>
</g>
</svg>
